<?xml version="1.0" encoding="UTF-8" standalone="no"?>
<!DOCTYPE svg PUBLIC "-//W3C//DTD SVG 1.1//EN" "http://www.w3.org/Graphics/SVG/1.1/DTD/svg11.dtd">
<svg xmlns="http://www.w3.org/2000/svg" version="1.1" viewBox="0.00 0.00 1024.00 1024.00">
  <!-- background start -->
  <path fill="#010B19" d="M 0.00 0.00 L 1024.00 0.00 L 1024.00 1024.00 L 0.00 1024.00 L 0.00 0.00 Z" />
  <!-- background end -->

  <!-- primary color starts -->
  <path fill="#f3f3f3" d=" M 710.20 526.31 Q 709.07 524.59 707.87 523.14 Q 706.13 521.02 705.45 520.05 Q 695.52 505.79 691.30 498.99 Q 687.88 493.49 683.64 490.01 Q 683.53 487.77 683.76 484.50 Q 683.85 483.20 682.75 482.00 C 673.91 472.39 664.88 463.29 655.80 453.57 Q 647.75 444.95 638.87 436.12 Q 638.21 435.46 637.58 436.14 L 616.93 458.27 Q 616.57 458.65 616.22 458.26 Q 606.19 447.03 598.60 439.36 C 579.60 420.17 560.26 401.16 541.32 381.78 Q 526.60 366.73 510.91 351.23 A 1.74 1.74 0.0 0 0 508.44 351.26 Q 479.85 380.64 456.81 403.31 C 437.78 422.04 420.08 439.26 403.35 458.60 Q 402.99 459.02 402.64 458.59 Q 401.71 457.44 400.78 456.41 Q 391.20 445.93 381.46 436.31 A 1.25 1.25 0.0 0 0 379.65 436.36 Q 360.09 457.90 337.48 481.40 C 335.09 483.89 335.81 486.60 335.67 489.78 Q 335.27 490.91 334.07 492.10 Q 332.70 493.46 332.19 494.14 Q 323.34 505.98 314.93 518.15 C 313.93 519.60 311.71 521.61 310.31 523.76 Q 309.61 524.84 308.84 525.37 Q 303.43 509.57 301.25 497.25 Q 296.04 467.75 298.60 439.46 Q 300.20 421.80 303.95 406.61 Q 306.22 397.43 309.98 385.96 Q 312.13 379.43 314.72 373.55 C 319.36 363.07 324.35 353.36 330.49 343.53 Q 336.63 333.69 341.91 326.80 C 371.01 288.82 411.83 260.68 458.61 248.70 Q 468.80 246.09 477.03 244.86 Q 543.83 234.88 602.34 264.26 Q 649.39 287.88 680.49 331.64 Q 712.82 377.14 720.24 434.13 Q 725.25 472.61 714.26 512.98 Q 711.57 522.85 710.20 526.31 Z" />
  <path fill="#f3f3f3" d=" M 478.50 406.26 C 477.35 406.61 476.35 407.19 475.23 407.57 Q 474.14 407.95 474.97 407.14 Q 491.85 390.77 508.89 372.66 Q 509.27 372.27 509.65 372.66 L 542.07 406.12 Q 542.49 406.55 541.92 406.38 Q 509.62 396.82 478.50 406.26 Z" />
  <path fill="#f3f3f3" d=" M 468.59 455.97 Q 473.49 445.87 478.96 439.01 Q 484.74 431.75 494.42 423.13 Q 494.86 422.74 495.45 422.74 Q 506.92 422.72 518.76 422.77 C 521.20 422.78 524.21 422.41 526.11 424.25 C 537.45 435.16 545.95 444.94 552.20 458.85 Q 552.63 459.81 551.58 459.93 Q 540.61 461.19 531.43 461.90 Q 499.69 464.34 467.97 459.63 Q 467.32 459.54 467.48 458.91 Q 467.83 457.54 468.59 455.97 Z" />
  <path fill="#f3f3f3" d=" M 573.70 456.80 C 570.41 449.47 567.31 442.53 563.14 435.47 C 562.81 434.91 562.25 434.44 561.97 433.89 Q 561.51 433.00 562.33 433.58 C 566.32 436.37 570.50 438.72 574.33 441.76 Q 582.03 447.88 588.48 455.17 Q 588.91 455.65 588.27 455.72 L 574.52 457.27 Q 573.94 457.34 573.70 456.80 Z" />
  <path fill="#f3f3f3" d=" M 458.01 434.16 C 453.35 441.28 449.54 448.63 446.51 456.34 A 1.44 1.43 15.2 0 1 444.95 457.23 L 431.22 455.04 A 0.20 0.20 0.0 0 1 431.10 454.70 Q 442.80 442.55 457.73 433.87 A 0.21 0.21 0.0 0 1 458.01 434.16 Z" />
  <path fill="#f3f3f3" d=" M 371.66 497.79 Q 362.91 506.94 355.68 515.67 C 355.22 516.23 355.04 516.97 354.61 517.56 Q 354.27 518.04 353.79 517.70 L 353.08 517.19 Q 353.53 500.68 353.02 491.00 C 352.86 487.81 353.68 487.35 355.50 485.39 Q 367.94 471.93 380.31 458.43 Q 380.63 458.08 380.96 458.42 L 392.33 470.26 A 0.73 0.71 42.4 0 1 392.38 471.19 L 371.66 497.79 Z" />
  <path fill="#f3f3f3" d=" M 666.04 515.58 Q 664.49 513.94 662.88 512.63 Q 660.84 510.97 659.73 509.73 Q 653.98 503.30 647.90 497.14 L 627.06 470.84 A 0.75 0.73 47.9 0 1 627.10 469.87 L 637.01 459.44 A 2.14 2.14 0.0 0 1 640.13 459.47 L 665.63 487.35 Q 665.98 487.73 665.98 488.24 L 666.04 515.58 Z" />
  <path fill="#f3f3f3" d=" M 404.59 521.68 Q 403.68 520.49 404.02 517.24 Q 406.24 496.54 417.43 478.86 Q 427.51 478.15 438.26 479.05 Q 438.80 479.09 438.64 479.61 C 434.31 493.47 432.41 506.59 431.79 521.10 Q 431.77 521.69 431.18 521.69 L 404.59 521.68 Z" />
  <path fill="#f3f3f3" d=" M 601.14 478.87 Q 612.86 498.84 614.43 521.67 L 589.02 521.60 Q 588.08 521.60 588.04 520.66 Q 587.21 499.95 580.63 479.49 A 0.34 0.33 80.3 0 1 580.94 479.05 L 601.14 478.87 Z" />
  <path fill="#f3f3f3" d=" M 560.62 484.69 Q 565.79 502.30 567.06 521.03 Q 567.11 521.67 566.47 521.67 L 453.50 521.72 A 0.76 0.75 2.1 0 1 452.74 520.91 Q 454.12 499.97 460.03 481.05 A 0.76 0.76 0.0 0 1 460.87 480.53 Q 472.96 482.43 484.37 483.06 Q 523.14 485.21 558.49 480.77 A 0.88 0.87 74.7 0 1 559.41 481.30 Q 560.10 482.92 560.62 484.69 Z" />
  <path fill="#f3f3f3" d=" M 613.95 541.99 C 613.73 544.33 613.83 546.81 613.43 548.99 Q 610.63 564.43 604.39 577.62 Q 602.32 581.99 598.75 587.24 L 580.47 584.90 A 0.77 0.77 0.0 0 1 579.84 583.90 Q 586.64 563.27 587.86 542.20 Q 587.89 541.66 588.43 541.67 L 613.95 541.99 Z" />
  <path fill="#f3f3f3" d=" M 419.97 587.31 Q 418.92 586.19 417.75 585.17 Q 416.50 584.09 415.80 582.84 Q 410.53 573.44 409.25 570.02 Q 404.24 556.61 403.35 541.88 L 431.30 541.97 A 0.65 0.65 0.0 0 1 431.94 542.58 Q 433.38 564.13 439.74 584.62 A 0.47 0.46 -11.7 0 1 439.34 585.22 L 419.97 587.31 Z" />
  <path fill="#f3f3f3" d=" M 559.35 581.95 A 1.17 1.16 -77.9 0 1 558.06 582.79 C 526.16 578.20 494.49 578.76 461.69 582.91 A 1.00 1.00 0.0 0 1 460.62 582.22 Q 454.83 563.70 452.95 542.41 Q 452.89 541.78 453.53 541.78 L 566.22 541.91 Q 566.82 541.91 566.76 542.50 Q 564.72 562.95 559.35 581.95 Z" />
  <path fill="#f3f3f3" d=" M 649.35 593.47 Q 651.09 595.74 653.02 597.46 Q 655.31 599.52 657.65 601.41 A 1.90 1.90 0.0 0 1 656.96 604.73 Q 654.46 605.41 651.91 604.29 Q 651.41 604.07 651.21 604.57 Q 650.17 607.13 650.82 610.21 L 650.17 618.08 A 0.30 0.30 0.0 0 1 649.69 618.29 C 647.32 616.48 644.77 614.75 642.53 612.72 Q 638.99 609.51 635.07 606.92 A 0.87 0.87 0.0 0 0 633.85 607.19 L 624.16 623.20 A 3.04 3.04 0.0 0 1 621.73 624.66 Q 612.56 625.16 604.55 626.56 Q 602.93 626.84 604.26 625.88 L 649.35 593.47 Z" />
  <path fill="#f3f3f3" d=" M 523.90 637.95 L 495.77 638.02 Q 495.12 638.02 494.62 637.60 C 483.37 628.09 473.80 617.73 467.89 604.08 Q 467.73 603.71 468.12 603.66 Q 509.40 598.12 550.72 603.53 A 0.72 0.72 0.0 0 1 551.29 604.52 C 545.79 617.51 536.54 628.06 525.75 637.27 Q 524.95 637.95 523.90 637.95 Z" />
  <path fill="#f3f3f3" d=" M 458.55 628.62 Q 459.32 629.68 459.95 630.84 Q 460.49 631.86 459.52 631.24 C 449.06 624.54 439.24 618.42 430.62 609.27 A 0.29 0.29 0.0 0 1 430.78 608.78 L 445.49 606.58 A 1.91 1.90 75.5 0 1 447.56 607.81 Q 451.77 619.23 458.55 628.62 Z" />
  <path fill="#f3f3f3" d=" M 584.02 608.35 Q 585.31 608.86 585.83 609.34 Q 586.19 609.67 585.83 610.00 C 580.05 615.28 574.22 620.70 567.90 624.94 Q 565.16 626.77 563.58 628.50 Q 562.95 629.18 561.48 632.08 Q 560.62 632.83 559.74 633.00 Q 558.89 633.17 559.39 632.46 C 559.90 631.72 560.58 631.14 561.06 630.35 Q 567.97 618.94 572.03 608.53 Q 572.95 606.16 575.25 606.59 Q 579.90 607.47 584.02 608.35 Z" />
  <path fill="#f3f3f3" d=" M 447.29 641.49 Q 434.18 644.92 423.10 649.90 Q 419.64 651.45 416.32 652.97 L 398.18 640.57 A 1.00 0.98 -45.5 0 0 397.04 640.59 L 387.50 647.51 Q 387.09 647.81 387.10 647.29 L 387.31 639.51 Q 387.71 638.64 387.50 638.01 A 0.64 0.64 0.0 0 0 386.80 637.58 C 383.44 638.06 380.16 638.66 376.75 638.82 Q 362.81 639.47 349.81 640.01 Q 347.07 640.12 343.45 641.52 A 0.40 0.39 -4.7 0 1 342.92 641.08 Q 342.93 641.05 342.74 640.64 L 385.87 620.06 A 0.57 0.56 49.1 0 1 386.45 620.11 Q 401.50 630.75 414.83 639.85 C 415.84 640.53 417.12 641.07 418.31 640.48 Q 424.82 637.25 432.47 634.52 C 433.85 634.02 434.87 634.00 436.18 634.77 Q 441.04 637.64 447.29 641.49 Z" />
  <path fill="#f3f3f3" d=" M 567.68 657.39 Q 568.41 658.14 568.66 658.70 Q 568.88 659.19 568.34 659.29 Q 563.53 660.19 558.74 661.07 Q 556.90 661.40 554.90 662.40 Q 551.81 663.95 546.35 664.06 Q 544.98 664.09 543.72 664.49 Q 543.24 664.64 542.74 664.60 Q 541.42 664.48 540.23 665.11 Q 539.33 665.58 538.18 665.68 Q 532.57 666.16 527.88 666.20 C 527.08 666.21 526.30 666.70 525.41 666.70 Q 520.98 666.71 516.52 667.52 Q 512.87 668.17 508.98 671.27 Q 504.63 674.74 501.63 679.05 A 2.21 2.21 0.0 0 1 498.59 679.63 Q 492.59 675.64 486.77 673.89 Q 481.08 672.18 472.88 670.90 C 469.45 670.36 466.32 670.95 463.08 670.87 Q 455.03 670.68 447.06 671.17 Q 434.71 671.66 424.11 674.26 Q 421.59 674.88 423.93 673.76 C 435.60 668.14 447.94 663.71 460.66 661.30 C 476.72 658.25 493.61 661.50 508.03 669.06 A 1.32 1.31 -56.4 0 0 509.65 668.73 Q 511.11 666.95 513.37 665.67 Q 538.89 651.17 567.68 657.39 Z" />
  <!-- primary color ends -->
  <path fill="#010B19" d="M 535.23 277.67 C 538.40 284.11 544.74 286.51 551.44 288.14 Q 552.50 288.40 551.43 288.63 Q 545.85 289.85 541.13 292.71 C 535.67 296.02 534.12 300.95 532.13 306.78 Q 531.50 308.65 530.80 306.80 Q 529.65 303.76 528.38 300.43 C 525.55 293.04 519.31 290.52 512.17 288.51 Q 510.67 288.09 512.15 287.62 Q 513.87 287.07 515.63 286.58 Q 526.24 283.66 529.31 274.19 Q 530.19 271.48 531.06 268.45 Q 531.69 266.25 532.15 268.49 Q 533.16 273.48 535.23 277.67 Z" />
  <path fill="#010B19" d="M 457.81 314.40 C 456.63 314.14 455.45 314.10 454.32 313.83 Q 453.37 313.60 454.31 313.36 Q 459.73 311.95 465.31 309.97 C 475.57 306.35 478.95 296.31 480.99 286.59 Q 481.66 283.41 482.23 286.61 C 483.80 295.37 486.93 304.66 495.00 308.90 C 498.96 310.98 503.44 311.95 507.81 313.22 Q 508.94 313.54 507.78 313.69 C 499.19 314.81 490.09 318.95 486.06 326.89 Q 483.29 332.33 481.69 338.21 Q 481.61 338.52 481.30 338.61 Q 481.13 338.65 480.98 338.58 Q 480.88 338.52 480.85 338.42 Q 476.28 318.43 457.81 314.40 Z" />
  <path fill="#010B19" d="M 608.7293 339.9981 A 29.81 29.40 0.4 0 1 578.7148 369.1893 A 29.81 29.40 0.4 0 1 549.1107 339.5819 A 29.81 29.40 0.4 0 1 579.1252 310.3907 A 29.81 29.40 0.4 0 1 608.7293 339.9981 Z" />
  <path fill="#010B19" d="M 432.22 345.80 Q 432.31 346.64 433.07 346.28 C 439.07 343.49 446.47 341.80 452.86 344.10 Q 465.97 348.83 469.18 362.19 A 0.72 0.71 84.0 0 1 468.47 363.07 Q 456.88 362.82 444.75 362.86 Q 397.45 362.99 351.21 363.01 A 0.59 0.58 -85.0 0 1 350.64 362.32 Q 352.81 350.20 362.64 343.19 C 368.05 339.32 375.59 337.20 382.11 339.08 Q 383.99 339.63 385.89 339.99 Q 386.52 340.11 386.75 339.51 Q 391.12 328.19 404.83 325.19 C 412.60 323.49 421.21 327.74 426.46 333.29 Q 431.50 338.64 432.22 345.80 Z" />
  <path fill="#010B19" d="M 642.54 348.83 C 644.63 355.21 649.08 357.18 655.00 359.29 Q 655.92 359.62 654.98 359.91 Q 653.74 360.28 652.42 360.65 C 647.36 362.04 643.60 365.75 641.81 370.71 Q 641.35 371.98 640.81 373.21 A 0.36 0.36 0.0 0 1 640.14 373.20 Q 639.53 371.64 638.87 369.91 C 636.56 363.85 632.39 361.66 626.58 359.95 Q 625.49 359.63 626.55 359.23 C 634.09 356.41 638.72 353.45 640.42 345.06 Q 640.74 343.46 641.27 345.00 Q 641.91 346.89 642.54 348.83 Z" />
  <path fill="#010B19" d="M 658.58 383.09 C 661.34 381.95 663.97 379.60 664.51 376.65 Q 664.91 374.41 665.86 376.48 Q 667.98 381.12 671.47 382.52 Q 674.57 383.76 671.35 384.62 C 668.16 385.47 667.40 387.04 666.10 389.85 A 0.87 0.87 0.0 0 1 664.50 389.81 Q 662.87 385.73 658.68 384.60 Q 656.41 383.99 658.58 383.09 Z" />
  <path fill="#010B19" d="M 593.22 396.85 C 599.95 395.17 603.85 390.32 605.13 383.62 Q 605.56 381.37 606.13 383.59 C 606.94 386.73 608.05 390.06 610.37 392.47 Q 614.09 396.36 619.48 397.53 Q 621.39 397.95 619.50 398.43 Q 608.59 401.23 606.16 412.00 Q 605.79 413.66 605.29 412.03 C 603.04 404.54 599.18 399.89 590.97 398.39 Q 589.78 398.18 590.87 397.67 Q 591.98 397.15 593.22 396.85 Z" />
  <path fill="#010B19" d="M 341.00 408.36 C 342.94 401.41 351.27 398.56 357.36 400.22 Q 365.36 402.39 367.11 410.63 Q 367.25 411.33 367.89 411.02 C 370.54 409.77 373.34 408.70 376.31 408.68 C 381.98 408.66 385.23 411.19 389.14 415.09 Q 389.59 415.53 390.16 415.27 C 399.76 410.76 412.07 414.79 415.64 425.13 A 0.74 0.73 -7.4 0 1 414.89 426.10 Q 409.45 425.72 403.79 425.75 Q 365.75 425.91 323.89 426.06 Q 323.09 426.07 323.16 425.27 C 323.95 415.56 330.07 407.64 340.26 408.85 Q 340.85 408.92 341.00 408.36 Z" />
  <path fill="#010B19" d="M 645.94 414.75 C 650.50 409.42 655.95 407.65 662.72 410.80 Q 663.58 411.20 663.87 410.29 Q 665.48 405.30 671.33 403.26 C 676.08 401.61 682.17 404.12 683.30 409.16 Q 683.44 409.76 684.05 409.76 C 693.02 409.84 696.23 417.90 697.07 425.37 Q 697.14 426.02 696.48 426.02 Q 665.14 425.84 633.83 425.73 Q 632.38 425.72 630.92 425.99 Q 630.00 426.15 630.14 425.23 Q 631.79 414.68 641.27 413.76 C 642.61 413.63 643.90 414.09 644.99 414.86 Q 645.52 415.24 645.94 414.75 Z" />

  <!-- Shades starts -->
  <!-- Shade 1 starts -->
  <path fill="#F3F3F3" d="M 417.43 478.86 Q 406.24 496.54 404.02 517.24 Q 403.68 520.49 404.59 521.68 L 388.91 521.75 A 0.66 0.66 0.0 0 1 388.26 520.99 Q 391.72 497.29 405.50 478.39 A 1.73 1.72 -63.6 0 1 407.39 477.75 Q 412.48 479.26 417.43 478.86 Z" />
  <path fill="#F3F3F3" d="M 614.43 521.67 Q 612.86 498.84 601.14 478.87 L 612.18 477.81 A 1.81 1.78 -25.7 0 1 613.59 478.29 C 615.64 480.24 616.77 482.37 618.27 484.65 Q 629.01 500.87 631.37 520.89 A 0.71 0.71 0.0 0 1 630.67 521.68 L 614.43 521.67 Z" />
  <path fill="#F3F3F3" d="M 335.67 489.78 L 335.74 575.27 Q 335.74 576.96 334.73 575.60 Q 317.85 552.76 308.84 525.37 Q 309.61 524.84 310.31 523.76 C 311.71 521.61 313.93 519.60 314.93 518.15 Q 323.34 505.98 332.19 494.14 Q 332.70 493.46 334.07 492.10 Q 335.27 490.91 335.67 489.78 Z" />
  <path fill="#F3F3F3" d="M 683.64 490.01 Q 687.88 493.49 691.30 498.99 Q 695.52 505.79 705.45 520.05 Q 706.13 521.02 707.87 523.14 Q 709.07 524.59 710.20 526.31 Q 701.12 553.02 684.10 576.48 Q 683.74 576.99 683.73 576.37 L 683.64 490.01 Z" />
  <path fill="#F3F3F3" d="M 647.90 497.14 Q 653.98 503.30 659.73 509.73 Q 660.84 510.97 662.88 512.63 Q 664.49 513.94 666.04 515.58 L 665.84 586.37 Q 665.84 586.99 665.35 586.62 L 648.53 573.87 A 2.69 2.67 -71.2 0 1 647.48 571.72 Q 647.74 535.30 647.29 499.00 Q 647.28 498.02 647.90 497.14 Z" />
  <path fill="#F3F3F3" d="M 371.66 497.79 L 371.76 600.68 A 0.92 0.91 -10.9 0 1 371.18 601.53 L 353.80 608.37 A 0.57 0.56 79.4 0 1 353.03 607.84 L 353.08 517.19 L 353.79 517.70 Q 354.27 518.04 354.61 517.56 C 355.04 516.97 355.22 516.23 355.68 515.67 Q 362.91 506.94 371.66 497.79 Z" />
  <path fill="#F3F3F3" d="M 403.35 541.88 Q 404.24 556.61 409.25 570.02 Q 410.53 573.44 415.80 582.84 Q 416.50 584.09 417.75 585.17 Q 418.92 586.19 419.97 587.31 Q 413.03 588.52 406.27 590.34 Q 404.45 590.82 403.08 592.01 A 0.42 0.41 55.1 0 1 402.45 591.89 Q 390.15 569.27 388.34 542.52 Q 388.28 541.70 389.10 541.71 L 403.35 541.88 Z" />
  <path fill="#F3F3F3" d="M 598.75 587.24 Q 602.32 581.99 604.39 577.62 Q 610.63 564.43 613.43 548.99 C 613.83 546.81 613.73 544.33 613.95 541.99 L 630.96 541.97 Q 631.49 541.97 631.47 542.49 Q 630.50 567.10 619.98 587.11 Q 618.11 590.66 615.82 593.57 Q 614.67 595.03 614.46 593.18 Q 614.17 590.60 611.54 589.88 Q 604.62 587.97 598.75 587.24 Z" />
  <path fill="#F3F3F3" d="M 650.82 610.21 Q 650.17 607.13 651.21 604.57 Q 651.41 604.07 651.91 604.29 Q 654.46 605.41 656.96 604.73 A 1.90 1.90 0.0 0 0 657.65 601.41 Q 655.31 599.52 653.02 597.46 Q 651.09 595.74 649.35 593.47 Q 650.21 592.92 651.69 592.64 Q 652.19 592.55 652.66 592.76 Q 659.12 595.65 666.64 601.04 Q 679.71 610.41 691.88 619.18 A 0.28 0.28 0.0 0 1 691.76 619.68 Q 691.33 619.74 690.91 619.62 Q 671.63 613.74 652.75 606.35 A 1.04 1.03 15.4 0 0 651.35 607.14 L 650.82 610.21 Z" />
  <path fill="#F3F3F3" d="M 584.02 608.35 L 589.43 608.92 A 0.55 0.55 0.0 0 1 589.83 609.78 Q 588.35 611.91 586.39 613.90 Q 575.49 625.01 561.48 632.08 Q 562.95 629.18 563.58 628.50 Q 565.16 626.77 567.90 624.94 C 574.22 620.70 580.05 615.28 585.83 610.00 Q 586.19 609.67 585.83 609.34 Q 585.31 608.86 584.02 608.35 Z" /> <path fill="#F3F3F3" d="M 387.31 639.51 Q 387.46 638.84 387.20 638.50 Q 386.87 638.06 386.35 638.23 Q 379.16 640.60 376.49 641.08 Q 353.05 645.27 328.95 648.08 Q 327.56 648.24 328.81 647.62 L 342.74 640.64 Q 342.93 641.05 342.92 641.08 A 0.40 0.39 -4.7 0 0 343.45 641.52 Q 347.07 640.12 349.81 640.01 Q 362.81 639.47 376.75 638.82 C 380.16 638.66 383.44 638.06 386.80 637.58 A 0.64 0.64 0.0 0 1 387.50 638.01 Q 387.71 638.64 387.31 639.51 Z" />
  <path fill="#F3F3F3" d="M 447.29 641.49 L 453.02 644.59 A 0.35 0.34 -38.3 0 1 452.94 645.23 C 441.66 648.29 431.33 652.02 420.61 655.77 Q 420.11 655.94 419.69 655.62 L 416.32 652.97 Q 419.64 651.45 423.10 649.90 Q 434.18 644.92 447.29 641.49 Z"/>
  <path fill="#F3F3F3" d="M 567.68 657.39 Q 579.40 660.30 590.32 665.53 A 0.19 0.19 0.0 0 1 590.37 665.84 L 585.49 670.66 Q 585.35 670.80 585.17 670.74 Q 569.39 665.45 552.20 665.75 Q 537.90 666.01 526.84 670.60 Q 513.03 676.34 502.66 686.11 A 1.21 1.20 -47.9 0 1 501.10 686.20 C 491.78 679.08 480.90 675.03 469.32 672.70 C 462.23 671.27 454.50 671.29 447.06 671.17 Q 455.03 670.68 463.08 670.87 C 466.32 670.95 469.45 670.36 472.88 670.90 Q 481.08 672.18 486.77 673.89 Q 492.59 675.64 498.59 679.63 A 2.21 2.21 0.0 0 0 501.63 679.05 Q 504.63 674.74 508.98 671.27 Q 512.87 668.17 516.52 667.52 Q 520.98 666.71 525.41 666.70 C 526.30 666.70 527.08 666.21 527.88 666.20 Q 532.57 666.16 538.18 665.68 Q 539.33 665.58 540.23 665.11 Q 541.42 664.48 542.74 664.60 Q 543.24 664.64 543.72 664.49 Q 544.98 664.09 546.35 664.06 Q 551.81 663.95 554.90 662.40 Q 556.90 661.40 558.74 661.07 Q 563.53 660.19 568.34 659.29 Q 568.88 659.19 568.66 658.70 Q 568.41 658.14 567.68 657.39 Z" />
  <!-- Shade 1 ends -->

  <!-- Shade 2 starts -->
  <g stroke-width="2.00" fill="none" stroke-linecap="butt">
    <path stroke="#F3F3F3" d="M 710.20 526.31 Q 709.07 524.59 707.87 523.14 Q 706.13 521.02 705.45 520.05 Q 695.52 505.79 691.30 498.99 Q 687.88 493.49 683.64 490.01" />
    <path stroke="#F3F3F3" d="M 335.67 489.78 Q 335.27 490.91 334.07 492.10 Q 332.70 493.46 332.19 494.14 Q 323.34 505.98 314.93 518.15 C 313.93 519.60 311.71 521.61 310.31 523.76 Q 309.61 524.84 308.84 525.37" />
    <path stroke="#F3F3F3" d="M 371.66 497.79 Q 362.91 506.94 355.68 515.67 C 355.22 516.23 355.04 516.97 354.61 517.56 Q 354.27 518.04 353.79 517.70 L 353.08 517.19" />
    <path stroke="#F3F3F3" d=" M 666.04 515.58 Q 664.49 513.94 662.88 512.63 Q 660.84 510.97 659.73 509.73 Q 653.98 503.30 647.90 497.14" />
    <path stroke="#F3F3F3" d=" M 417.43 478.86 Q 406.24 496.54 404.02 517.24 Q 403.68 520.49 404.59 521.68" />
    <path stroke="#F3F3F3" d=" M 614.43 521.67 Q 612.86 498.84 601.14 478.87" />
    <path stroke="#F3F3F3" d=" M 403.35 541.88 Q 404.24 556.61 409.25 570.02 Q 410.53 573.44 415.80 582.84 Q 416.50 584.09 417.75 585.17 Q 418.92 586.19 419.97 587.31" />
    <path stroke="#F3F3F3" d=" M 613.95 541.99 C 613.73 544.33 613.83 546.81 613.43 548.99 Q 610.63 564.43 604.39 577.62 Q 602.32 581.99 598.75 587.24" />
    <path stroke="#F3F3F3" d="M 650.82 610.21 Q 650.17 607.13 651.21 604.57 Q 651.41 604.07 651.91 604.29 Q 654.46 605.41 656.96 604.73 A 1.90 1.90 0.0 0 0 657.65 601.41 Q 655.31 599.52 653.02 597.46 Q 651.09 595.74 649.35 593.47" />
    <path stroke="#F3F3F3" d=" M 584.02 608.35 Q 585.31 608.86 585.83 609.34 Q 586.19 609.67 585.83 610.00 C 580.05 615.28 574.22 620.70 567.90 624.94 Q 565.16 626.77 563.58 628.50 Q 562.95 629.18 561.48 632.08" />
    <path stroke="#F3F3F3" d=" M 447.29 641.49 Q 434.18 644.92 423.10 649.90 Q 419.64 651.45 416.32 652.97" />
    <path stroke="#F3F3F3" d=" M 387.31 639.51 Q 387.71 638.64 387.50 638.01 A 0.64 0.64 0.0 0 0 386.80 637.58 C 383.44 638.06 380.16 638.66 376.75 638.82 Q 362.81 639.47 349.81 640.01 Q 347.07 640.12 343.45 641.52 A 0.40 0.39 -4.7 0 1 342.92 641.08 Q 342.93 641.05 342.74 640.64" />
    <path stroke="#F3F3F3" d="M 567.68 657.39 Q 568.41 658.14 568.66 658.70 Q 568.88 659.19 568.34 659.29 Q 563.53 660.19 558.74 661.07 Q 556.90 661.40 554.90 662.40 Q 551.81 663.95 546.35 664.06 Q 544.98 664.09 543.72 664.49 Q 543.24 664.64 542.74 664.60 Q 541.42 664.48 540.23 665.11 Q 539.33 665.58 538.18 665.68 Q 532.57 666.16 527.88 666.20 C 527.08 666.21 526.30 666.70 525.41 666.70 Q 520.98 666.71 516.52 667.52 Q 512.87 668.17 508.98 671.27 Q 504.63 674.74 501.63 679.05 A 2.21 2.21 0.0 0 1 498.59 679.63 Q 492.59 675.64 486.77 673.89 Q 481.08 672.18 472.88 670.90 C 469.45 670.36 466.32 670.95 463.08 670.87 Q 455.03 670.68 447.06 671.17" />
  </g>
  <!-- Shade 2 starts -->
  <!-- Shades Ends -->
</svg>